<svg xmlns="http://www.w3.org/2000/svg" viewBox="0 0 800 1000" preserveAspectRatio="xMidYMid slice"><defs><linearGradient id="g7" x1="0" y1="0" x2="0" y2="1"><stop offset="0" stop-color="#e4ebe0"/><stop offset="1" stop-color="#d3ddcd"/></linearGradient></defs><rect x="0" y="0" width="800" height="700" rx="0" fill="url(#g7)" /><rect x="0" y="700" width="800" height="300" rx="0" fill="#d2b48c" /><line x1="0" y1="728" x2="800" y2="728" stroke="#bf9d73" stroke-opacity=".35" stroke-width="2"/><line x1="0" y1="762" x2="800" y2="762" stroke="#bf9d73" stroke-opacity=".35" stroke-width="2"/><line x1="0" y1="796" x2="800" y2="796" stroke="#bf9d73" stroke-opacity=".35" stroke-width="2"/><line x1="0" y1="830" x2="800" y2="830" stroke="#bf9d73" stroke-opacity=".35" stroke-width="2"/><line x1="0" y1="864" x2="800" y2="864" stroke="#bf9d73" stroke-opacity=".35" stroke-width="2"/><line x1="0" y1="898" x2="800" y2="898" stroke="#bf9d73" stroke-opacity=".35" stroke-width="2"/><line x1="0" y1="932" x2="800" y2="932" stroke="#bf9d73" stroke-opacity=".35" stroke-width="2"/><line x1="0" y1="966" x2="800" y2="966" stroke="#bf9d73" stroke-opacity=".35" stroke-width="2"/><rect x="0" y="684" width="800" height="16" rx="0" fill="#fffaf0" /><rect x="0" y="698" width="800" height="3" rx="0" fill="#d3ddcd" /><rect x="90" y="190" width="160" height="200" rx="4" fill="#5f3e25" /><rect x="98" y="198" width="144" height="184" rx="2" fill="#fffaf0" /><clipPath id="c8"><rect x="98" y="198" width="144" height="184"/></clipPath><g clip-path="url(#c8)"><ellipse cx="146" cy="266" rx="25.6" ry="25.6" fill="#b88e2f" /><rect x="157.2" y="290" width="60.8" height="72" rx="4" fill="#b46d49" /><rect x="118.8" y="314" width="32" height="48" rx="4" fill="#e8c27a" /></g><rect x="560" y="220" width="120" height="150" rx="4" fill="#5f3e25" /><rect x="568" y="228" width="104" height="134" rx="2" fill="#fffaf0" /><clipPath id="c9"><rect x="568" y="228" width="104" height="134"/></clipPath><g clip-path="url(#c9)"><path d="M570 325 Q596 250 620 310 T670 280 L670 360 L570 360 Z" fill="#4f8657" /><ellipse cx="644" cy="262" rx="12" ry="12" fill="#e8c27a" /></g><rect x="398.5" y="0" width="3" height="230" rx="0" fill="#5f3e25" /><path d="M354 264 Q360 226 400 224 Q440 226 446 264 Z" fill="#b88e2f" /><ellipse cx="400" cy="264" rx="46" ry="7" fill="#e8c27a" /><ellipse cx="400" cy="286" rx="70" ry="28" fill="#e8c27a" opacity=".18"/><ellipse cx="400" cy="792" rx="310" ry="40" fill="#d3ddcd" opacity=".9"/><ellipse cx="400" cy="792" rx="288" ry="28" fill="none" stroke="#fffaf0" stroke-width="3" stroke-opacity=".7"/><rect x="175.2" y="719" width="10.4" height="91" rx="3" fill="#5f3e25" /><rect x="237.60000000000002" y="719" width="10.4" height="91" rx="3" fill="#5f3e25" /><rect x="172.6" y="615" width="78" height="106.60000000000001" rx="15.600000000000001" fill="#c9805a" /><rect x="167.4" y="706" width="88.4" height="20.8" rx="7.800000000000001" fill="#9c6b42" /><rect x="185.6" y="641" width="52" height="52" rx="10.4" fill="#fffaf0" opacity=".25"/><rect x="525.2" y="719" width="10.4" height="91" rx="3" fill="#5f3e25" /><rect x="587.6" y="719" width="10.4" height="91" rx="3" fill="#5f3e25" /><rect x="522.6" y="615" width="78" height="106.60000000000001" rx="15.600000000000001" fill="#c9805a" /><rect x="517.4" y="706" width="88.4" height="20.8" rx="7.800000000000001" fill="#9c6b42" /><rect x="535.6" y="641" width="52" height="52" rx="10.4" fill="#fffaf0" opacity=".25"/><rect x="178" y="700" width="12" height="90" rx="3" fill="#5f3e25" /><rect x="610" y="700" width="12" height="90" rx="3" fill="#5f3e25" /><rect x="154" y="682" width="492" height="20" rx="8" fill="#9c6b42" /><ellipse cx="304" cy="678" rx="40" ry="8" fill="#fffaf0" /><ellipse cx="496" cy="678" rx="40" ry="8" fill="#fffaf0" /><ellipse cx="400" cy="668" rx="24" ry="12" fill="#fffaf0" /><path d="M386 656 q-4 -22 4 -34 q10 10 4 34 Z" fill="#4f8657" /><path d="M402 656 q8 -18 16 -26 q2 14 -8 26 Z" fill="#356a3f" /><rect x="388" y="656" width="24" height="18" rx="5" fill="#c9805a" /><rect x="266" y="745" width="12" height="105" rx="3" fill="#5f3e25" /><rect x="338" y="745" width="12" height="105" rx="3" fill="#5f3e25" /><rect x="263" y="625" width="90" height="123" rx="18" fill="#b46d49" /><rect x="257" y="730" width="102" height="24" rx="9" fill="#9c6b42" /><rect x="278" y="655" width="60" height="60" rx="12" fill="#fffaf0" opacity=".25"/><rect x="436" y="745" width="12" height="105" rx="3" fill="#5f3e25" /><rect x="508" y="745" width="12" height="105" rx="3" fill="#5f3e25" /><rect x="433" y="625" width="90" height="123" rx="18" fill="#b46d49" /><rect x="427" y="730" width="102" height="24" rx="9" fill="#9c6b42" /><rect x="448" y="655" width="60" height="60" rx="12" fill="#fffaf0" opacity=".25"/><g transform="translate(740 730) rotate(-48)"><path d="M0 0 C-16 -48 -12 -102 0 -120 C12 -102 16 -48 0 0 Z" fill="#356a3f" /></g><g transform="translate(740 730) rotate(48)"><path d="M0 0 C-16 -48 -12 -102 0 -120 C12 -102 16 -48 0 0 Z" fill="#356a3f" /></g><g transform="translate(740 730) rotate(-24)"><path d="M0 0 C-16 -60 -12 -127.5 0 -150 C12 -127.5 16 -60 0 0 Z" fill="#4f8657" /></g><g transform="translate(740 730) rotate(24)"><path d="M0 0 C-16 -60 -12 -127.5 0 -150 C12 -127.5 16 -60 0 0 Z" fill="#4f8657" /></g><g transform="translate(740 730) rotate(0)"><path d="M0 0 C-16 -70 -12 -148.75 0 -175 C12 -148.75 16 -70 0 0 Z" fill="#356a3f" /></g><g transform="translate(740 730) rotate(-70)"><path d="M0 0 C-16 -36 -12 -76.5 0 -90 C12 -76.5 16 -36 0 0 Z" fill="#4f8657" /></g><g transform="translate(740 730) rotate(70)"><path d="M0 0 C-16 -36 -12 -76.5 0 -90 C12 -76.5 16 -36 0 0 Z" fill="#4f8657" /></g><path d="M706 724 L774 724 L766 790 L714 790 Z" fill="#fffaf0" /><rect x="704" y="718" width="72" height="12" rx="3" fill="#d3ddcd" /></svg>