<svg xmlns="http://www.w3.org/2000/svg" viewBox="100 0 800 700" preserveAspectRatio="xMidYMid slice"><defs><linearGradient id="g21" x1="0" y1="0" x2="0" y2="1"><stop offset="0" stop-color="#f1e4d3"/><stop offset="1" stop-color="#e6d3bc"/></linearGradient></defs><rect x="0" y="0" width="1000" height="520" rx="0" fill="url(#g21)" /><rect x="0" y="520" width="1000" height="180" rx="0" fill="#c8a47c" /><line x1="0" y1="548" x2="1000" y2="548" stroke="#b88e63" stroke-opacity=".35" stroke-width="2"/><line x1="0" y1="582" x2="1000" y2="582" stroke="#b88e63" stroke-opacity=".35" stroke-width="2"/><line x1="0" y1="616" x2="1000" y2="616" stroke="#b88e63" stroke-opacity=".35" stroke-width="2"/><line x1="0" y1="650" x2="1000" y2="650" stroke="#b88e63" stroke-opacity=".35" stroke-width="2"/><line x1="0" y1="684" x2="1000" y2="684" stroke="#b88e63" stroke-opacity=".35" stroke-width="2"/><rect x="0" y="504" width="1000" height="16" rx="0" fill="#fff6e8" /><rect x="0" y="518" width="1000" height="3" rx="0" fill="#e6d3bc" /><defs><linearGradient id="s22" x1="0" y1="0" x2="0" y2="1"><stop offset="0" stop-color="#9fd0ec"/><stop offset="1" stop-color="#e2f2fa"/></linearGradient></defs><rect x="98" y="118" width="274" height="254" rx="6" fill="#fff" /><rect x="110" y="130" width="250" height="230" rx="0" fill="url(#s22)" /><ellipse cx="185" cy="199" rx="35" ry="13.799999999999999" fill="#fff" opacity=".9"/><ellipse cx="210" cy="192.1" rx="25" ry="13.799999999999999" fill="#fff" opacity=".9"/><ellipse cx="290" cy="245" rx="32.5" ry="11.5" fill="#fff" opacity=".8"/><path d="M110 360 L197.5 272.6 L260 360 Z" fill="#bcd9b4" opacity=".7"/><rect x="231" y="130" width="8" height="230" rx="0" fill="#fff" /><rect x="110" y="241" width="250" height="8" rx="0" fill="#fff" /><rect x="90" y="370" width="290" height="12" rx="4" fill="#fff" /><rect x="640" y="130" width="150" height="190" rx="4" fill="#6b4528" /><rect x="648" y="138" width="134" height="174" rx="2" fill="#fff6e8" /><clipPath id="c23"><rect x="648" y="138" width="134" height="174"/></clipPath><g clip-path="url(#c23)"><ellipse cx="692.5" cy="202.2" rx="24" ry="24" fill="#b88e2f" /><rect x="703" y="225" width="57" height="68.39999999999999" rx="4" fill="#7a8a6e" /><rect x="667" y="247.8" width="30" height="45.6" rx="4" fill="#e0b36a" /></g><rect x="820" y="160" width="110" height="150" rx="4" fill="#6b4528" /><rect x="828" y="168" width="94" height="134" rx="2" fill="#fff6e8" /><clipPath id="c24"><rect x="828" y="168" width="94" height="134"/></clipPath><g clip-path="url(#c24)"><path d="M830 265 Q853 190 875 250 T920 220 L920 300 L830 300 Z" fill="#5c8a5a" /><ellipse cx="897" cy="202" rx="11" ry="11" fill="#e0b36a" /></g><rect x="498.5" y="0" width="3" height="190" rx="0" fill="#6b4528" /><path d="M454 224 Q460 186 500 184 Q540 186 546 224 Z" fill="#b88e2f" /><ellipse cx="500" cy="224" rx="46" ry="7" fill="#e0b36a" /><ellipse cx="500" cy="246" rx="70" ry="28" fill="#e0b36a" opacity=".18"/><ellipse cx="500" cy="572" rx="350" ry="40" fill="#e6d3bc" opacity=".9"/><ellipse cx="500" cy="572" rx="328" ry="28" fill="none" stroke="#fff6e8" stroke-width="3" stroke-opacity=".7"/><rect x="265" y="522.5" width="10" height="87.5" rx="3" fill="#6b4528" /><rect x="325" y="522.5" width="10" height="87.5" rx="3" fill="#6b4528" /><rect x="262.5" y="422.5" width="75" height="102.5" rx="15" fill="#8f9f82" /><rect x="257.5" y="510" width="85" height="20" rx="7.5" fill="#a9774b" /><rect x="275" y="447.5" width="50" height="50" rx="10" fill="#fff6e8" opacity=".25"/><rect x="625" y="522.5" width="10" height="87.5" rx="3" fill="#6b4528" /><rect x="685" y="522.5" width="10" height="87.5" rx="3" fill="#6b4528" /><rect x="622.5" y="422.5" width="75" height="102.5" rx="15" fill="#8f9f82" /><rect x="617.5" y="510" width="85" height="20" rx="7.5" fill="#a9774b" /><rect x="635" y="447.5" width="50" height="50" rx="10" fill="#fff6e8" opacity=".25"/><rect x="288" y="500" width="12" height="90" rx="3" fill="#6b4528" /><rect x="700" y="500" width="12" height="90" rx="3" fill="#6b4528" /><rect x="264" y="482" width="472" height="20" rx="8" fill="#a9774b" /><ellipse cx="408" cy="478" rx="40" ry="8" fill="#fff6e8" /><ellipse cx="592" cy="478" rx="40" ry="8" fill="#fff6e8" /><ellipse cx="500" cy="468" rx="24" ry="12" fill="#fff6e8" /><path d="M486 456 q-4 -22 4 -34 q10 10 4 34 Z" fill="#5c8a5a" /><path d="M502 456 q8 -18 16 -26 q2 14 -8 26 Z" fill="#3f6e44" /><rect x="488" y="456" width="24" height="18" rx="5" fill="#8f9f82" /><rect x="385.8" y="538.5" width="11.6" height="101.5" rx="3" fill="#6b4528" /><rect x="455.4" y="538.5" width="11.6" height="101.5" rx="3" fill="#6b4528" /><rect x="382.9" y="422.5" width="87" height="118.89999999999999" rx="17.4" fill="#7a8a6e" /><rect x="377.1" y="524" width="98.6" height="23.2" rx="8.7" fill="#a9774b" /><rect x="397.4" y="451.5" width="58" height="58" rx="11.6" fill="#fff6e8" opacity=".25"/><rect x="535.8" y="538.5" width="11.6" height="101.5" rx="3" fill="#6b4528" /><rect x="605.4" y="538.5" width="11.6" height="101.5" rx="3" fill="#6b4528" /><rect x="532.9" y="422.5" width="87" height="118.89999999999999" rx="17.4" fill="#7a8a6e" /><rect x="527.1" y="524" width="98.6" height="23.2" rx="8.7" fill="#a9774b" /><rect x="547.4" y="451.5" width="58" height="58" rx="11.6" fill="#fff6e8" opacity=".25"/><g transform="translate(900 494) rotate(-48)"><path d="M0 0 C-17.6 -52.800000000000004 -13.200000000000001 -112.2 0 -132 C13.200000000000001 -112.2 17.6 -52.800000000000004 0 0 Z" fill="#3f6e44" /></g><g transform="translate(900 494) rotate(48)"><path d="M0 0 C-17.6 -52.800000000000004 -13.200000000000001 -112.2 0 -132 C13.200000000000001 -112.2 17.6 -52.800000000000004 0 0 Z" fill="#3f6e44" /></g><g transform="translate(900 494) rotate(-24)"><path d="M0 0 C-17.6 -66 -13.200000000000001 -140.25 0 -165 C13.200000000000001 -140.25 17.6 -66 0 0 Z" fill="#5c8a5a" /></g><g transform="translate(900 494) rotate(24)"><path d="M0 0 C-17.6 -66 -13.200000000000001 -140.25 0 -165 C13.200000000000001 -140.25 17.6 -66 0 0 Z" fill="#5c8a5a" /></g><g transform="translate(900 494) rotate(0)"><path d="M0 0 C-17.6 -77 -13.200000000000001 -163.625 0 -192.50000000000003 C13.200000000000001 -163.625 17.6 -77 0 0 Z" fill="#3f6e44" /></g><g transform="translate(900 494) rotate(-70)"><path d="M0 0 C-17.6 -39.6 -13.200000000000001 -84.15 0 -99.00000000000001 C13.200000000000001 -84.15 17.6 -39.6 0 0 Z" fill="#5c8a5a" /></g><g transform="translate(900 494) rotate(70)"><path d="M0 0 C-17.6 -39.6 -13.200000000000001 -84.15 0 -99.00000000000001 C13.200000000000001 -84.15 17.6 -39.6 0 0 Z" fill="#5c8a5a" /></g><path d="M862.6 487.4 L937.4 487.4 L928.6 560 L871.4 560 Z" fill="#fff6e8" /><rect x="860.4" y="480.8" width="79.2" height="13.200000000000001" rx="3" fill="#e6d3bc" /></svg>